<svg width="243" height="88" viewBox="0 0 243 88" fill="none" xmlns="http://www.w3.org/2000/svg">
<mask id="mask0" mask-type="alpha" maskUnits="userSpaceOnUse" x="0" y="0" width="109" height="83">
<path fill-rule="evenodd" clip-rule="evenodd" d="M8.47274 82.0096C7.60411 82.2388 6.68807 81.8616 6.25672 81.0736C6.09743 80.7826 5.9407 80.4899 5.78656 80.1958C5.36541 79.3919 5.5694 78.4087 6.2557 77.815L9.35265 75.1359C10.0176 74.5607 10.2249 73.6203 9.89445 72.8055C9.44943 71.7082 9.04385 70.5905 8.67943 69.4544C8.41324 68.6246 7.66201 68.0377 6.79081 68.0137L2.64892 67.8992C1.74827 67.8743 0.971661 67.2511 0.782215 66.3702C0.48488 64.9877 0.239655 63.5858 0.0486987 62.1667C-0.0738773 61.2558 0.468867 60.3929 1.33282 60.0792L5.09675 58.7123C5.93617 58.4075 6.46747 57.5832 6.43258 56.6908C6.40784 56.0579 6.39535 55.4219 6.39535 54.7829C6.39535 54.2415 6.40431 53.7022 6.4221 53.1651C6.45118 52.2872 5.93266 51.4769 5.11105 51.1662L1.27708 49.7164C0.429318 49.3959 -0.100725 48.5447 0.0160668 47.6459C0.201055 46.2223 0.440624 44.8159 0.732609 43.4288C0.920813 42.5347 1.71313 41.9048 2.62671 41.8916L6.6749 41.833C7.56091 41.8202 8.32873 41.2246 8.59438 40.3792C8.95247 39.2397 9.35192 38.1186 9.79098 37.0176C10.1157 36.2033 9.90522 35.267 9.24089 34.6951L6.12466 32.0123C5.43866 31.4218 5.23142 30.4422 5.64706 29.6381C6.30161 28.3718 7.00405 27.1343 7.752 25.9281C8.23428 25.1503 9.1959 24.8282 10.0602 25.129L13.8732 26.4565C14.7121 26.7485 15.6396 26.4497 16.1777 25.7431C16.9616 24.7139 17.7861 23.7173 18.6489 22.756C19.2495 22.0868 19.3641 21.1051 18.9035 20.3329L16.87 16.9235C16.3965 16.1295 16.5262 15.1115 17.2057 14.4847C18.2585 13.5134 19.3496 12.5829 20.4762 11.6958C21.1804 11.1414 22.17 11.1533 22.8794 11.701L26.1903 14.2575C26.8759 14.7869 27.8222 14.8111 28.5522 14.3447C29.6184 13.6635 30.7133 13.0234 31.8348 12.4267C32.6118 12.0133 33.0561 11.1576 32.9139 10.2891L32.2523 6.248C32.1055 5.35172 32.5796 4.46545 33.4191 4.11873C34.7223 3.58046 36.0507 3.09112 37.4023 2.65301C38.2699 2.37176 39.209 2.74378 39.676 3.52723L41.7589 7.02186C42.2116 7.78143 43.1085 8.14928 43.9722 7.95971C45.2838 7.67181 46.6156 7.43775 47.9651 7.25996C48.8429 7.14433 49.5616 6.4917 49.7277 5.62207L50.4897 1.6329C50.661 0.736377 51.4174 0.0656936 52.3296 0.0338433C52.974 0.0113432 53.6212 0 54.271 0C55.0535 0 55.8321 0.0164426 56.6066 0.0490048C57.5151 0.0872016 58.265 0.758481 58.4335 1.65203L59.1906 5.66826C59.3539 6.53438 60.0656 7.18722 60.9385 7.309C62.1259 7.47465 63.2993 7.6839 64.4571 7.93509C65.3194 8.12217 66.2137 7.75409 66.6654 6.99612L68.7545 3.49117C69.2206 2.7091 70.1574 2.33683 71.0241 2.61564C72.3708 3.04887 73.6948 3.53292 74.9938 4.06555C75.8358 4.41081 76.3122 5.29861 76.1651 6.19673L75.5057 10.2241C75.3631 11.0948 75.81 11.9522 76.59 12.3645C77.7345 12.9694 78.8515 13.6194 79.9387 14.3121C80.6685 14.777 81.6135 14.7522 82.2984 14.2234L85.6144 11.663C86.3232 11.1158 87.3116 11.1033 88.0158 11.6564C89.1367 12.5369 90.2224 13.4602 91.2705 14.4239C91.9518 15.0505 92.0826 16.0699 91.6084 16.8649L89.5793 20.267C89.118 21.0403 89.2337 22.0237 89.8363 22.6927C90.7099 23.6627 91.5445 24.6686 92.3376 25.708C92.876 26.4135 93.8028 26.7116 94.6409 26.4199L98.4582 25.0909C99.322 24.7902 100.283 25.1117 100.766 25.8886C101.506 27.0812 102.203 28.3045 102.852 29.556C103.27 30.3605 103.063 31.3417 102.376 31.9331L99.2671 34.6098C98.6017 35.1827 98.3917 36.1209 98.7185 36.9359C99.1301 37.9626 99.5072 39.0069 99.8485 40.0673C100.118 40.9058 100.883 41.4947 101.764 41.5074L105.846 41.5664C106.755 41.5795 107.545 42.2033 107.737 43.0917C108.036 44.4674 108.283 45.8624 108.476 47.2746C108.6 48.1775 108.069 49.0358 107.217 49.3581L103.417 50.795C102.59 51.1076 102.071 51.9259 102.107 52.8092C102.133 53.4638 102.147 54.1218 102.147 54.7829C102.147 55.192 102.142 55.5999 102.131 56.0066C102.109 56.8886 102.639 57.6975 103.468 57.9986L107.298 59.3892C108.153 59.6997 108.694 60.5487 108.585 61.4518C108.411 62.8842 108.182 64.2997 107.9 65.6959C107.72 66.588 106.938 67.2235 106.029 67.2486L101.955 67.3612C101.074 67.3855 100.316 67.9859 100.058 68.8295C99.6823 70.0598 99.2582 71.2691 98.7881 72.4552C98.4664 73.2669 98.6758 74.199 99.3362 74.7703L102.463 77.4751C103.145 78.0654 103.351 79.0412 102.938 79.8434C102.728 80.2528 102.512 80.6591 102.291 81.0623C101.86 81.8506 100.944 82.2281 100.075 81.9988C95.1452 80.6978 88.105 78.8307 80.495 76.804C79.043 76.4173 78.5099 74.6148 79.404 73.4071C83.2576 68.2026 85.5368 61.7592 85.5368 54.7829C85.5368 37.4939 71.5387 23.4784 54.271 23.4784C37.0035 23.4784 23.0053 37.4939 23.0053 54.7829C23.0053 61.7636 25.2873 68.2106 29.1452 73.4168C30.0401 74.6244 29.5071 76.4277 28.0547 76.8145C20.4386 78.8428 13.3963 80.7104 8.47274 82.0096ZM44.4956 74.1733C44.1249 74.1978 43.7528 74.1222 43.4285 73.9409C36.6026 70.1266 31.9873 62.8297 31.9873 54.4547C31.9873 42.135 41.9744 32.1479 54.2941 32.1479C66.6138 32.1479 76.6009 42.135 76.6009 54.4547C76.6009 62.8296 71.9857 70.1265 65.1598 73.9409C64.8355 74.1221 64.4634 74.1978 64.0927 74.1733C59.7587 73.8865 55.8888 73.809 54.2945 73.809C52.7002 73.809 48.8299 73.8865 44.4956 74.1733ZM54.294 64.9515C60.0915 64.9515 64.7913 60.2517 64.7913 54.4542C64.7913 48.6566 60.0915 43.9568 54.294 43.9568C48.4964 43.9568 43.7966 48.6566 43.7966 54.4542C43.7966 60.2517 48.4964 64.9515 54.294 64.9515Z" fill="#002147"/>
</mask>
<g mask="url(#mask0)">
<path d="M89.8247 96.7723C78.0153 59.5068 24.3258 25.9154 -1.0427 13.7778L-10.5559 84.6347C27.8249 104.208 101.634 134.038 89.8247 96.7723Z" fill="url(#paint0_linear)"/>
<path d="M-9.7626 -31.5755C-4.79395 18.5482 62.2557 80.4959 95.1594 105.204L132.182 22.3502C82.7967 -16.5099 -14.7313 -81.6992 -9.7626 -31.5755Z" fill="url(#paint1_linear)"/>
<path d="M106.808 -31.7507C68.9255 -39.3004 -1.18841 75.6737 2.48223 88.3313C6.15287 100.989 105.741 20.6734 103.129 8.94058C100.518 -2.79226 120.478 -29.0263 106.808 -31.7507Z" fill="url(#paint2_linear)"/>
<path d="M-52.7071 61.3275C-38.61 99.7906 50.8796 109.3 55.3772 99.869C59.8749 90.4377 -16.3917 47.9831 -30.9713 45.2486C-45.5509 42.5141 -57.7941 47.4479 -52.7071 61.3275Z" fill="url(#paint3_linear)"/>
<path d="M112.31 103.695C120.419 71.5343 63.1795 23.6844 55.712 27.8802C48.2444 32.0759 83.0473 107.553 89.8883 104.321C96.7294 101.089 109.384 115.3 112.31 103.695Z" fill="url(#paint4_linear)"/>
<path d="M50.2445 2.20187C54.3607 27.4315 73.0742 50.1737 81.9164 58.3911L85.2322 10.4193C71.8546 -2.83221 46.1283 -23.0278 50.2445 2.20187Z" fill="url(#paint5_linear)"/>
</g>
<path d="M154.657 60.7841L154.657 60.7844C157.749 63.291 161.256 64.547 165.17 64.547C167.296 64.547 169.589 64.0778 172.046 63.1474C172.415 63.0077 172.606 62.6057 172.492 62.2332L170.527 55.8051C170.383 55.3339 169.845 55.1408 169.428 55.3549C168.204 55.9828 166.906 56.2964 165.529 56.2964C163.521 56.2964 161.784 55.6929 160.307 54.488C158.444 52.9679 157.508 50.893 157.508 48.2342C157.508 45.5598 158.444 43.4777 160.307 41.9578C161.784 40.753 163.521 40.1495 165.529 40.1495C166.906 40.1495 168.204 40.4631 169.428 41.091C169.845 41.3051 170.383 41.112 170.527 40.6408L172.491 34.2153C172.605 33.8411 172.413 33.4378 172.042 33.2993C169.55 32.3689 167.28 31.8989 165.237 31.8989C161.279 31.8989 157.75 33.1545 154.657 35.6615L154.657 35.6618C150.712 38.8703 148.737 43.0682 148.737 48.2342C148.737 53.3854 150.712 57.5757 154.657 60.7841ZM138.22 39.7227H143.81C144.224 39.7227 144.56 39.3869 144.56 38.9727V33.3004C144.56 32.8862 144.224 32.5504 143.81 32.5504H123.785C123.371 32.5504 123.035 32.8862 123.035 33.3004V38.9727C123.035 39.3869 123.371 39.7227 123.785 39.7227H129.263C129.401 39.7227 129.513 39.8346 129.513 39.9727V62.9657C129.513 63.38 129.849 63.7157 130.263 63.7157H137.22C137.634 63.7157 137.97 63.38 137.97 62.9657V39.9727C137.97 39.8346 138.082 39.7227 138.22 39.7227ZM209.422 63.7157H216.359C216.817 63.7157 217.169 63.3077 217.1 62.8541L212.634 33.1888C212.578 32.8218 212.263 32.5504 211.892 32.5504H204.748C204.442 32.5504 204.166 32.7367 204.052 33.0209L198.087 47.8741C198.003 48.0854 197.703 48.0825 197.622 47.8697L191.99 33.0342C191.879 32.743 191.6 32.5504 191.289 32.5504H184.211C183.845 32.5504 183.533 32.8144 183.471 33.175L178.441 62.8404C178.363 63.2981 178.716 63.7157 179.18 63.7157H186.069C186.441 63.7157 186.757 63.4431 186.811 63.075L189.078 47.6795C189.115 47.4268 189.462 47.386 189.557 47.6231L195.803 63.2442C195.917 63.529 196.193 63.7157 196.5 63.7157H198.989C199.291 63.7157 199.564 63.5343 199.681 63.2555L206.229 47.6235C206.328 47.3877 206.675 47.4347 206.708 47.6883L208.679 63.0611C208.727 63.4354 209.045 63.7157 209.422 63.7157ZM225.03 63.7157H239.497C239.822 63.7157 240.11 63.5069 240.21 63.1983L242.06 57.5261C242.218 57.0413 241.857 56.5435 241.347 56.5435H232.987C232.849 56.5435 232.737 56.4316 232.737 56.2935V33.3004C232.737 32.8862 232.402 32.5504 231.987 32.5504H225.03C224.616 32.5504 224.28 32.8862 224.28 33.3004V62.9657C224.28 63.38 224.616 63.7157 225.03 63.7157Z" fill="#216093" stroke="#216093" stroke-width="0.5"/>
<path fill-rule="evenodd" clip-rule="evenodd" d="M54.3965 76.7625C66.7162 76.7625 76.7033 66.7754 76.7033 54.4557C76.7033 42.136 66.7162 32.1489 54.3965 32.1489C42.0768 32.1489 32.0897 42.136 32.0897 54.4557C32.0897 66.7754 42.0768 76.7625 54.3965 76.7625ZM54.3964 64.9528C60.1939 64.9528 64.8937 60.253 64.8937 54.4555C64.8937 48.658 60.1939 43.9582 54.3964 43.9582C48.5989 43.9582 43.8991 48.658 43.8991 54.4555C43.8991 60.253 48.5989 64.9528 54.3964 64.9528Z" fill="#216093"/>
<ellipse cx="55.7086" cy="84.6351" rx="23.619" ry="2.62433" fill="white" fill-opacity="0.01"/>
<defs>
<linearGradient id="paint0_linear" x1="40.2667" y1="13.7778" x2="40.2667" y2="114.561" gradientUnits="userSpaceOnUse">
<stop stop-color="#5686DA"/>
<stop offset="1" stop-color="#8EFFB7"/>
</linearGradient>
<linearGradient id="paint1_linear" x1="35.1104" y1="89.1142" x2="68.0996" y2="-34.0033" gradientUnits="userSpaceOnUse">
<stop stop-color="#5686DA"/>
<stop offset="1" stop-color="#8EFFB7"/>
</linearGradient>
<linearGradient id="paint2_linear" x1="23.3121" y1="18.7996" x2="93.433" y2="40.9044" gradientUnits="userSpaceOnUse">
<stop stop-color="#5686DA"/>
<stop offset="1" stop-color="#8EFFB7"/>
</linearGradient>
<linearGradient id="paint3_linear" x1="11.4148" y1="113.959" x2="-11.6771" y2="35.4924" gradientUnits="userSpaceOnUse">
<stop stop-color="#5686DA"/>
<stop offset="1" stop-color="#8EFFB7"/>
</linearGradient>
<linearGradient id="paint4_linear" x1="92.5364" y1="38.8935" x2="72.9724" y2="99.1581" gradientUnits="userSpaceOnUse">
<stop stop-color="#5686DA"/>
<stop offset="1" stop-color="#8EFFB7"/>
</linearGradient>
<linearGradient id="paint5_linear" x1="67.518" y1="58.3911" x2="67.518" y2="-9.84146" gradientUnits="userSpaceOnUse">
<stop stop-color="#5686DA"/>
<stop offset="1" stop-color="#8EFFB7"/>
</linearGradient>
</defs>
</svg>
