<svg width="251" height="273" viewBox="0 0 251 273" fill="none" xmlns="http://www.w3.org/2000/svg">
<mask id="mask0" mask-type="alpha" maskUnits="userSpaceOnUse" x="0" y="0" width="251" height="190">
<path fill-rule="evenodd" clip-rule="evenodd" d="M18.5317 189.655C17.2159 190.002 15.8308 189.429 15.166 188.242C14.3968 186.868 13.6525 185.478 12.9337 184.073C12.3076 182.85 12.6148 181.361 13.6544 180.462L22.6178 172.708C23.6251 171.837 23.9412 170.411 23.4275 169.183C22.075 165.947 20.8716 162.633 19.8258 159.25C19.4359 157.989 18.2958 157.101 16.9761 157.065L5.04046 156.735C3.67615 156.697 2.50174 155.753 2.20194 154.421C1.30746 150.449 0.599679 146.405 0.0883123 142.301C-0.0838234 140.919 0.736301 139.612 2.04501 139.137L13.0292 135.148C14.3007 134.687 15.1078 133.438 15.0405 132.087C14.9481 130.231 14.9013 128.363 14.9013 126.485C14.9013 124.84 14.9372 123.204 15.0081 121.577C15.066 120.248 14.2784 119.02 13.0338 118.55L1.94246 114.356C0.658272 113.87 -0.142635 112.581 0.0211628 111.218C0.515647 107.103 1.20746 103.048 2.08688 99.0646C2.38522 97.7131 3.5834 96.7587 4.96728 96.7386L16.7331 96.5686C18.0752 96.5492 19.2404 95.6476 19.629 94.3628C20.6569 90.9641 21.8436 87.6344 23.1807 84.3826C23.6856 83.1545 23.3647 81.7354 22.3584 80.8691L13.3529 73.1163C12.3137 72.2217 12.0016 70.7389 12.6194 69.5148C14.4729 65.8424 16.4999 62.2728 18.6899 58.8168C19.4319 57.6458 20.8868 57.1568 22.196 57.6126L33.2903 61.475C34.561 61.9174 35.9677 61.4661 36.7714 60.3871C39.0342 57.3491 41.4491 54.4312 44.0047 51.645C44.9254 50.6413 45.0972 49.1528 44.3996 47.9831L38.4446 37.9987C37.7272 36.796 37.925 35.2555 38.9449 34.2959C41.9491 31.4692 45.0915 28.7881 48.3608 26.2638C49.4354 25.434 50.9331 25.4506 52.0077 26.2803L61.5176 33.6232C62.5562 34.4251 63.9908 34.4638 65.0891 33.7458C68.1816 31.7242 71.3815 29.8535 74.6784 28.1442C75.8619 27.5305 76.5339 26.2324 76.3185 24.9167L74.403 13.218C74.1807 11.8603 74.8996 10.5197 76.166 9.98215C79.9095 8.39298 83.7454 6.97942 87.6634 5.75176C88.9818 5.33866 90.4037 5.90026 91.111 7.08703L97.1558 17.2288C97.8416 18.3794 99.2006 18.9388 100.506 18.6376C104.285 17.7652 108.139 17.0869 112.055 16.6136C113.386 16.4527 114.475 15.4619 114.726 14.1446L116.939 2.56058C117.199 1.20254 118.344 0.188581 119.726 0.127032C121.619 0.0426419 123.524 0 125.439 0C127.658 0 129.864 0.0572935 132.055 0.170498C133.431 0.241561 134.567 1.25642 134.822 2.60997L137.015 14.2452C137.263 15.5572 138.34 16.5483 139.665 16.7187C143.201 17.1736 146.685 17.7959 150.108 18.5772C151.412 18.8747 152.767 18.3149 153.451 17.1667L159.507 7.00614C160.213 5.82147 161.631 5.25949 162.948 5.66893C166.856 6.88378 170.682 8.28344 174.417 9.85768C175.687 10.3931 176.409 11.736 176.187 13.0965L174.275 24.7703C174.059 26.0892 174.735 27.3899 175.923 28.0017C179.275 29.7277 182.527 31.6202 185.669 33.6683C186.767 34.3841 188.2 34.3446 189.237 33.5435L198.757 26.1933C199.83 25.3644 201.326 25.347 202.401 26.1748C205.658 28.6833 208.788 31.3473 211.783 34.1556C212.805 35.1148 213.005 36.6574 212.287 37.8616L206.339 47.8328C205.641 49.0043 205.814 50.4953 206.738 51.4988C209.32 54.3039 211.759 57.243 214.044 60.3044C214.848 61.3818 216.254 61.832 217.523 61.39L228.625 57.525C229.934 57.0695 231.388 57.5575 232.13 58.7271C234.304 62.1518 236.319 65.6883 238.162 69.326C238.783 70.5507 238.471 72.0361 237.431 72.9319L228.438 80.6737C227.43 81.5414 227.11 82.9635 227.618 84.1926C228.891 87.2715 230.029 90.4203 231.024 93.6319C231.419 94.9063 232.58 95.7975 233.914 95.8168L245.742 95.9878C247.119 96.0077 248.313 96.9529 248.618 98.2957C249.517 102.252 250.232 106.28 250.751 110.368C250.925 111.737 250.123 113.037 248.832 113.525L237.803 117.696C236.55 118.169 235.761 119.409 235.83 120.746C235.927 122.647 235.976 124.56 235.976 126.485C235.976 127.825 235.952 129.16 235.905 130.49C235.857 131.825 236.662 133.05 237.918 133.507L249.021 137.539C250.316 138.009 251.134 139.295 250.982 140.664C250.521 144.8 249.861 148.877 249.011 152.883C248.725 154.231 247.543 155.194 246.165 155.232L234.355 155.559C233.019 155.595 231.87 156.504 231.493 157.786C230.432 161.393 229.194 164.924 227.786 168.368C227.286 169.592 227.605 171.005 228.606 171.87L237.624 179.671C238.657 180.566 238.968 182.043 238.354 183.264C237.513 184.936 236.637 186.588 235.725 188.217C235.06 189.405 233.675 189.978 232.359 189.63C220.407 186.478 202.6 181.756 183.45 176.654C181.251 176.068 180.448 173.344 181.868 171.565C191.73 159.205 197.626 143.535 197.626 126.485C197.626 86.5673 165.307 54.2078 125.439 54.2078C85.5705 54.2078 53.251 86.5673 53.251 126.485C53.251 143.545 59.1542 159.224 69.0271 171.587C70.4478 173.366 69.6452 176.091 67.4451 176.677C48.2798 181.783 30.4665 186.507 18.5317 189.655ZM102.418 171.285C101.856 171.323 101.293 171.207 100.799 170.936C84.8227 162.192 73.9882 145.225 73.9882 125.727C73.9882 97.2832 97.0468 74.2246 125.491 74.2246C153.935 74.2246 176.994 97.2832 176.994 125.727C176.994 145.225 166.159 162.192 150.183 170.936C149.689 171.207 149.126 171.323 148.564 171.285C138.376 170.598 129.227 170.414 125.491 170.414C121.755 170.414 112.606 170.598 102.418 171.285ZM125.491 149.964C138.877 149.964 149.728 139.113 149.728 125.727C149.728 112.342 138.877 101.491 125.491 101.491C112.106 101.491 101.254 112.342 101.254 125.727C101.254 139.113 112.106 149.964 125.491 149.964Z" fill="#002147"/>
</mask>
<g mask="url(#mask0)">
<path d="M207.525 223.431C180.259 137.391 56.2988 59.8341 -2.27296 31.8105L-24.2374 195.408C64.3777 240.599 234.791 309.471 207.525 223.431Z" fill="url(#paint0_linear)"/>
<path d="M-22.406 -72.9028C-10.9342 42.8246 143.872 185.852 219.842 242.899L305.32 51.603C191.298 -38.1187 -33.8778 -188.63 -22.406 -72.9028Z" fill="url(#paint1_linear)"/>
<path d="M246.737 -73.3077C159.272 -90.7387 -2.60958 174.718 5.86533 203.942C14.3402 233.166 244.273 47.7311 238.243 20.6418C232.213 -6.44743 278.299 -67.0176 246.737 -73.3077Z" fill="url(#paint2_linear)"/>
<path d="M-121.558 141.594C-89.0097 230.399 117.607 252.356 127.992 230.581C138.376 208.805 -37.7111 110.785 -71.3731 104.471C-105.035 98.1575 -133.303 109.549 -121.558 141.594Z" fill="url(#paint3_linear)"/>
<path d="M259.44 239.414C278.161 165.161 146.005 54.6836 128.764 64.3709C111.523 74.0582 191.877 248.323 207.672 240.861C223.467 233.399 252.684 266.209 259.44 239.414Z" fill="url(#paint4_linear)"/>
<path d="M116.141 5.08408C125.644 63.3352 168.851 115.843 189.266 134.816L196.922 24.0567C166.035 -6.53878 106.637 -53.167 116.141 5.08408Z" fill="url(#paint5_linear)"/>
</g>
<path d="M90.799 238.858L90.7995 238.859C94.6881 242.004 99.1002 243.58 104.023 243.58C106.665 243.58 109.509 243.006 112.553 241.868C113.115 241.658 113.403 241.048 113.23 240.483L110.852 232.718C110.633 232.004 109.82 231.716 109.189 232.028C107.706 232.76 106.136 233.126 104.472 233.126C101.969 233.126 99.8061 232.376 97.966 230.878C95.6463 228.99 94.4799 226.414 94.4799 223.106C94.4799 219.778 95.6468 217.192 97.966 215.305C99.8061 213.807 101.969 213.057 104.472 213.057C106.136 213.057 107.706 213.423 109.189 214.156C109.82 214.467 110.633 214.18 110.852 213.465L113.229 205.704C113.403 205.137 113.111 204.524 112.547 204.316C109.462 203.179 106.647 202.603 104.107 202.603C99.1294 202.603 94.689 204.179 90.7995 207.325L90.799 207.325C85.837 211.352 83.3513 216.623 83.3513 223.106C83.3513 229.57 85.8373 234.832 90.799 238.858ZM70.3599 212.523H77.1084C77.7359 212.523 78.2445 212.014 78.2445 211.387V204.554C78.2445 203.926 77.7359 203.418 77.1084 203.418H52.2594C51.632 203.418 51.1233 203.926 51.1233 204.554V211.387C51.1233 212.014 51.632 212.523 52.2594 212.523H58.8674C59.0765 212.523 59.2461 212.692 59.2461 212.902V241.404C59.2461 242.032 59.7547 242.54 60.3822 242.54H68.8452C69.4726 242.54 69.9812 242.032 69.9812 241.404V212.902C69.9812 212.692 70.1508 212.523 70.3599 212.523ZM159.627 242.54H168.058C168.753 242.54 169.285 241.922 169.182 241.235L163.62 204.384C163.536 203.829 163.059 203.418 162.497 203.418H153.739C153.275 203.418 152.858 203.7 152.685 204.13L145.363 222.322C145.234 222.641 144.78 222.637 144.658 222.315L137.746 204.15C137.578 203.709 137.156 203.418 136.684 203.418H128.009C127.455 203.418 126.981 203.817 126.889 204.364L120.625 241.214C120.507 241.908 121.042 242.54 121.745 242.54H130.116C130.68 242.54 131.158 242.128 131.24 241.57L133.996 222.899C134.052 222.517 134.578 222.455 134.722 222.813L142.342 241.827C142.514 242.258 142.932 242.54 143.396 242.54H146.343C146.801 242.54 147.214 242.266 147.391 241.844L155.381 222.814C155.53 222.457 156.056 222.529 156.105 222.913L158.5 241.549C158.573 242.116 159.056 242.54 159.627 242.54ZM179.214 242.54H197.13C197.621 242.54 198.057 242.224 198.21 241.757L200.443 234.925C200.683 234.19 200.136 233.435 199.363 233.435H189.192C188.982 233.435 188.813 233.266 188.813 233.057V204.554C188.813 203.926 188.304 203.418 187.677 203.418H179.214C178.586 203.418 178.078 203.926 178.078 204.554V241.404C178.078 242.032 178.586 242.54 179.214 242.54Z" fill="#216093" stroke="#216093" stroke-width="0.757394"/>
<path fill-rule="evenodd" clip-rule="evenodd" d="M125.727 177.23C154.171 177.23 177.229 154.172 177.229 125.727C177.229 97.2832 154.171 74.2246 125.727 74.2246C97.2824 74.2246 74.2238 97.2832 74.2238 125.727C74.2238 154.172 97.2824 177.23 125.727 177.23ZM125.727 149.964C139.112 149.964 149.963 139.113 149.963 125.727C149.963 112.342 139.112 101.491 125.727 101.491C112.341 101.491 101.49 112.342 101.49 125.727C101.49 139.113 112.341 149.964 125.727 149.964Z" fill="#216093"/>
<g filter="url(#filter0_d)">
<ellipse cx="128.756" cy="237.822" rx="54.5324" ry="6.05915" fill="white" fill-opacity="0.01"/>
</g>
<defs>
<filter id="filter0_d" x="68.1647" y="231.763" width="121.183" height="40.8993" filterUnits="userSpaceOnUse" color-interpolation-filters="sRGB">
<feFlood flood-opacity="0" result="BackgroundImageFix"/>
<feColorMatrix in="SourceAlpha" type="matrix" values="0 0 0 0 0 0 0 0 0 0 0 0 0 0 0 0 0 0 127 0"/>
<feOffset dy="22.7218"/>
<feGaussianBlur stdDeviation="3.02958"/>
<feColorMatrix type="matrix" values="0 0 0 0 0 0 0 0 0 0 0 0 0 0 0 0 0 0 0.1 0"/>
<feBlend mode="normal" in2="BackgroundImageFix" result="effect1_dropShadow"/>
<feBlend mode="normal" in="SourceGraphic" in2="effect1_dropShadow" result="shape"/>
</filter>
<linearGradient id="paint0_linear" x1="93.1038" y1="31.8105" x2="93.1038" y2="264.502" gradientUnits="userSpaceOnUse">
<stop stop-color="#5686DA"/>
<stop offset="1" stop-color="#8EFFB7"/>
</linearGradient>
<linearGradient id="paint1_linear" x1="81.1984" y1="205.75" x2="157.365" y2="-78.5082" gradientUnits="userSpaceOnUse">
<stop stop-color="#5686DA"/>
<stop offset="1" stop-color="#8EFFB7"/>
</linearGradient>
<linearGradient id="paint2_linear" x1="53.9582" y1="43.4048" x2="215.856" y2="94.4412" gradientUnits="userSpaceOnUse">
<stop stop-color="#5686DA"/>
<stop offset="1" stop-color="#8EFFB7"/>
</linearGradient>
<linearGradient id="paint3_linear" x1="26.4896" y1="263.113" x2="-26.826" y2="81.9454" gradientUnits="userSpaceOnUse">
<stop stop-color="#5686DA"/>
<stop offset="1" stop-color="#8EFFB7"/>
</linearGradient>
<linearGradient id="paint4_linear" x1="213.786" y1="89.7989" x2="168.616" y2="228.94" gradientUnits="userSpaceOnUse">
<stop stop-color="#5686DA"/>
<stop offset="1" stop-color="#8EFFB7"/>
</linearGradient>
<linearGradient id="paint5_linear" x1="156.022" y1="134.816" x2="156.022" y2="-22.722" gradientUnits="userSpaceOnUse">
<stop stop-color="#5686DA"/>
<stop offset="1" stop-color="#8EFFB7"/>
</linearGradient>
</defs>
</svg>
