<svg width="206" height="198" viewBox="0 0 206 198" fill="none" xmlns="http://www.w3.org/2000/svg">
<g filter="url(#filter0_d)">
<path d="M76.1959 179.537L76.1962 179.537C79.1495 181.926 82.4994 183.123 86.2374 183.123C88.265 183.123 90.4513 182.677 92.7942 181.793C93.1556 181.657 93.342 181.264 93.2303 180.899L91.3625 174.801C91.2215 174.341 90.696 174.153 90.2883 174.361C89.1247 174.954 87.8896 175.251 86.5799 175.251C84.6641 175.251 83.0072 174.676 81.5977 173.529C79.8201 172.082 78.9271 170.108 78.9271 167.576C78.9271 165.031 79.8204 163.049 81.5978 161.602C83.0072 160.455 84.6641 159.881 86.5799 159.881C87.8896 159.881 89.1247 160.177 90.2883 160.771C90.696 160.979 91.2215 160.791 91.3625 160.33L93.2296 154.235C93.3417 153.869 93.1531 153.474 92.7898 153.339C90.414 152.455 88.2503 152.009 86.3017 152.009C82.5215 152.009 79.1501 153.205 76.1962 155.594L76.1959 155.594C72.4281 158.652 70.5411 162.653 70.5411 167.576C70.5411 172.486 72.4283 176.48 76.1959 179.537ZM60.517 159.474H65.8315C66.2364 159.474 66.5647 159.146 66.5647 158.741V153.362C66.5647 152.957 66.2364 152.629 65.8315 152.629H46.7344C46.3294 152.629 46.0012 152.957 46.0012 153.362V158.741C46.0012 159.146 46.3294 159.474 46.7344 159.474H51.9418C52.0768 159.474 52.1862 159.584 52.1862 159.719V181.598C52.1862 182.003 52.5145 182.331 52.9194 182.331H59.5394C59.9443 182.331 60.2726 182.003 60.2726 181.598V159.719C60.2726 159.584 60.382 159.474 60.517 159.474ZM128.5 182.331H135.099C135.548 182.331 135.891 181.932 135.824 181.489L131.563 153.253C131.509 152.894 131.201 152.629 130.838 152.629H124.034C123.735 152.629 123.466 152.811 123.354 153.089L117.673 167.204C117.59 167.411 117.297 167.408 117.218 167.2L111.853 153.102C111.745 152.817 111.472 152.629 111.168 152.629H104.427C104.07 152.629 103.764 152.887 103.704 153.24L98.9053 181.475C98.8293 181.923 99.1742 182.331 99.6282 182.331H106.182C106.546 182.331 106.854 182.065 106.907 181.705L109.064 167.091C109.101 166.844 109.44 166.804 109.533 167.036L115.478 181.871C115.59 182.149 115.859 182.331 116.159 182.331H118.521C118.816 182.331 119.083 182.154 119.197 181.882L125.43 167.036C125.527 166.806 125.866 166.852 125.898 167.099L127.773 181.691C127.82 182.057 128.131 182.331 128.5 182.331ZM143.404 182.331H157.197C157.515 182.331 157.796 182.127 157.894 181.826L159.652 176.447C159.807 175.973 159.454 175.486 158.955 175.486H151.001C150.866 175.486 150.757 175.377 150.757 175.242V153.362C150.757 152.957 150.429 152.629 150.024 152.629H143.404C142.999 152.629 142.67 152.957 142.67 153.362V181.598C142.67 182.003 142.999 182.331 143.404 182.331Z" fill="white" stroke="white" stroke-width="0.488799"/>
<path fill-rule="evenodd" clip-rule="evenodd" d="M22.0409 146.482C21.2085 146.702 20.3325 146.351 19.8916 145.611C18.7842 143.754 17.7375 141.857 16.7542 139.921C16.3524 139.13 16.5503 138.17 17.2213 137.59L24.4479 131.338C25.098 130.776 25.3024 129.856 24.9684 129.064C23.8645 126.446 22.8889 123.76 22.0495 121.015C21.8004 120.2 21.0642 119.627 20.2126 119.604L10.5987 119.338C9.71825 119.314 8.96069 118.704 8.7648 117.845C8.03555 114.648 7.46519 111.391 7.06246 108.082C6.95391 107.19 7.48281 106.346 8.32741 106.04L17.1993 102.818C18.0199 102.52 18.5411 101.714 18.495 100.842C18.4156 99.3421 18.3754 97.8316 18.3754 96.3117C18.3754 94.9719 18.4067 93.6394 18.4684 92.315C18.5084 91.4572 17.9997 90.665 17.1965 90.3613L8.25512 86.9803C7.42634 86.6669 6.90984 85.835 7.01308 84.955C7.40231 81.6375 7.95991 78.3716 8.67712 75.1661C8.87215 74.2944 9.64505 73.6784 10.5382 73.6655L20.0329 73.5282C20.8991 73.5157 21.6515 72.934 21.8996 72.1041C22.7246 69.3451 23.6869 66.6456 24.7787 64.0134C25.107 63.2219 24.8995 62.3059 24.25 61.7468L16.9919 55.4982C16.3212 54.9209 16.1201 53.9641 16.5166 53.173C18.0017 50.2098 19.6351 47.3339 21.407 44.5551C21.888 43.8007 22.8266 43.485 23.6716 43.7791L32.6266 46.8967C33.4466 47.1822 34.3548 46.8912 34.8713 46.1932C36.6926 43.7319 38.6447 41.3734 40.7174 39.1281C41.3135 38.4823 41.4241 37.5213 40.9739 36.7664L36.1604 28.6961C35.6975 27.9199 35.8254 26.926 36.4818 26.3048C38.8947 24.0214 41.4255 21.8618 44.0643 19.8359C44.7593 19.3024 45.7256 19.3127 46.4191 19.8482L54.0735 25.7584C54.7438 26.276 55.6698 26.3013 56.3772 25.8358C58.8704 24.1952 61.4558 22.6837 64.124 21.3108C64.8891 20.9171 65.3226 20.079 65.1835 19.2299L63.6391 9.79742C63.4956 8.92122 63.9597 8.0564 64.776 7.70714C67.7882 6.41837 70.8792 5.27909 74.0401 4.29858C74.8917 4.03441 75.8092 4.39649 76.2657 5.1624L81.1421 13.3439C81.5847 14.0865 82.4619 14.448 83.3035 14.2509C86.3467 13.5384 89.4534 12.9912 92.6136 12.6193C93.4731 12.5182 94.1755 11.8783 94.3379 11.0281L96.1231 1.68191C96.2906 0.805471 97.03 0.15147 97.9213 0.109248C99.453 0.0366888 100.994 0 102.544 0C104.325 0 106.095 0.0484795 107.853 0.144205C108.741 0.192547 109.474 0.847133 109.638 1.72067L111.407 11.1035C111.567 11.9502 112.262 12.5902 113.117 12.6975C115.987 13.0576 118.811 13.5623 121.583 14.2042C122.424 14.3987 123.298 14.037 123.74 13.2961L128.624 5.10133C129.08 4.33678 129.995 3.97445 130.846 4.23627C133.999 5.20669 137.083 6.33501 140.088 7.612C140.907 7.95989 141.374 8.8262 141.23 9.7042L139.688 19.1192C139.549 19.9703 139.985 20.8102 140.753 21.2026C143.463 22.5877 146.089 24.1156 148.62 25.7763C149.327 26.2404 150.252 26.2145 150.922 25.6976L158.583 19.7822C159.275 19.2472 160.241 19.2363 160.936 19.7686C163.565 21.7823 166.087 23.9287 168.493 26.1979C169.151 26.8188 169.28 27.8141 168.816 28.5913L164.008 36.6525C163.557 37.4085 163.669 38.371 164.267 39.0168C166.36 41.2762 168.331 43.6508 170.169 46.1299C170.686 46.8269 171.594 47.1171 172.413 46.8319L181.374 43.7124C182.218 43.4185 183.156 43.7336 183.637 44.487C185.397 47.2421 187.021 50.0927 188.499 53.0295C188.897 53.821 188.697 54.7795 188.025 55.3576L180.776 61.5984C180.125 62.1584 179.918 63.0762 180.249 63.8685C181.291 66.3686 182.217 68.9297 183.019 71.5451C183.271 72.3683 184.02 72.9434 184.882 72.9558L194.42 73.0937C195.308 73.1065 196.079 73.7166 196.278 74.5827C197.012 77.7674 197.587 81.0125 197.997 84.3094C198.106 85.1934 197.589 86.0323 196.756 86.3474L187.858 89.7119C187.05 90.0175 186.541 90.8175 186.587 91.6805C186.67 93.2137 186.712 94.7577 186.712 96.3117C186.712 97.4203 186.691 98.5239 186.648 99.6222C186.615 100.484 187.135 101.275 187.946 101.569L196.901 104.821C197.736 105.125 198.264 105.955 198.168 106.839C197.806 110.172 197.274 113.455 196.582 116.678C196.394 117.548 195.632 118.169 194.742 118.194L185.217 118.457C184.355 118.481 183.613 119.067 183.372 119.895C182.524 122.813 181.523 125.665 180.378 128.442C180.053 129.231 180.26 130.143 180.905 130.702L188.17 136.986C188.837 137.563 189.037 138.517 188.643 139.306C187.574 141.448 186.428 143.545 185.207 145.592C184.767 146.332 183.89 146.683 183.058 146.463C173.173 143.855 158.468 139.953 142.955 135.817V135.817C142.216 135.62 141.949 134.689 142.475 134.133C151.795 124.272 157.511 110.96 157.511 96.3117C157.511 65.9166 132.901 41.2764 102.544 41.2764C72.1864 41.2764 47.5767 65.9166 47.5767 96.3117C47.5767 110.993 53.3178 124.331 62.6748 134.198C63.1809 134.732 62.9253 135.628 62.2146 135.817V135.817C46.6649 139.963 31.9266 143.873 22.0409 146.482ZM89.3022 132.475C89.034 132.489 88.7643 132.449 88.5137 132.352C73.806 126.697 63.3679 112.435 63.3679 95.7354C63.3679 74.0766 80.9259 56.5186 102.585 56.5186C124.243 56.5186 141.801 74.0766 141.801 95.7354C141.801 112.435 131.363 126.697 116.656 132.352C116.405 132.449 116.135 132.489 115.867 132.475C109.913 132.161 104.893 132.068 102.585 132.068C100.277 132.068 95.2567 132.161 89.3022 132.475ZM102.584 114.19C112.777 114.19 121.039 105.928 121.039 95.7354C121.039 85.5431 112.777 77.2805 102.584 77.2805C92.392 77.2805 84.1294 85.5431 84.1294 95.7354C84.1294 105.928 92.392 114.19 102.584 114.19Z" fill="white"/>
</g>
<path fill-rule="evenodd" clip-rule="evenodd" d="M102.763 134.952C124.422 134.952 141.98 117.394 141.98 95.7348C141.98 74.076 124.422 56.5181 102.763 56.5181C81.1045 56.5181 63.5466 74.076 63.5466 95.7348C63.5466 117.394 81.1045 134.952 102.763 134.952ZM102.763 114.19C112.955 114.19 121.218 105.927 121.218 95.7349C121.218 85.5425 112.955 77.28 102.763 77.28C92.5705 77.28 84.3079 85.5425 84.3079 95.7349C84.3079 105.927 92.5705 114.19 102.763 114.19Z" fill="white"/>
<defs>
<filter id="filter0_d" x="0.156809" y="0" width="204.866" height="197.054" filterUnits="userSpaceOnUse" color-interpolation-filters="sRGB">
<feFlood flood-opacity="0" result="BackgroundImageFix"/>
<feColorMatrix in="SourceAlpha" type="matrix" values="0 0 0 0 0 0 0 0 0 0 0 0 0 0 0 0 0 0 127 0"/>
<feOffset dy="6.84319"/>
<feGaussianBlur stdDeviation="3.4216"/>
<feColorMatrix type="matrix" values="0 0 0 0 0 0 0 0 0 0 0 0 0 0 0 0 0 0 0.11 0"/>
<feBlend mode="normal" in2="BackgroundImageFix" result="effect1_dropShadow"/>
<feBlend mode="normal" in="SourceGraphic" in2="effect1_dropShadow" result="shape"/>
</filter>
</defs>
</svg>
