<svg width="160" height="129" viewBox="0 0 160 129" fill="none" xmlns="http://www.w3.org/2000/svg">
<mask id="mask0" mask-type="alpha" maskUnits="userSpaceOnUse" x="42" y="15" width="73" height="55">
<path fill-rule="evenodd" clip-rule="evenodd" d="M48.2568 69.198C47.4947 69.3991 46.6905 69.07 46.3183 68.3753V68.3753C45.9424 67.6735 46.1216 66.809 46.7237 66.2881L48.1443 65.0591C48.8093 64.4839 49.0144 63.5442 48.697 62.7243C48.5331 62.3009 48.378 61.8732 48.2319 61.4413C47.9528 60.6157 47.2036 60.028 46.3324 60.004L44.6012 59.9561C43.7006 59.9313 42.922 59.3083 42.7452 58.4248C42.6291 57.8452 42.5269 57.2606 42.4389 56.6713C42.303 55.7623 42.8477 54.8991 43.7117 54.5853L45.2263 54.0353C46.0657 53.7305 46.5948 52.9061 46.574 52.0133C46.5682 51.763 46.5653 51.512 46.5653 51.2603C46.5653 51.0695 46.567 50.8791 46.5703 50.6891C46.5858 49.8108 46.0694 49.0004 45.2478 48.6897L43.6637 48.0907C42.8159 47.7701 42.2839 46.9186 42.4136 46.0216C42.4991 45.4295 42.599 44.8421 42.7128 44.2596C42.888 43.3629 43.6822 42.7333 44.5958 42.7201L46.2452 42.6962C47.1312 42.6834 47.8969 42.0869 48.1761 41.2459C48.3191 40.8151 48.4711 40.3884 48.6319 39.966C48.9437 39.1468 48.7353 38.2111 48.071 37.6392L46.7793 36.5272C46.0933 35.9366 45.8844 34.9561 46.3116 34.158C46.5918 33.6344 46.8845 33.1185 47.1893 32.6107C47.6602 31.826 48.6236 31.5048 49.4879 31.8057L51.0363 32.3447C51.8752 32.6368 52.801 32.3365 53.3503 31.6385C53.6691 31.2335 53.9976 30.8364 54.3353 30.4476C54.925 29.7689 55.0414 28.7885 54.5808 28.0163L53.7714 26.6592C53.2978 25.8652 53.4263 24.8457 54.1149 24.2288C54.5617 23.8285 55.0185 23.4392 55.4849 23.0612C56.1812 22.4969 57.1721 22.5102 57.8815 23.058L59.2786 24.1367C59.9643 24.6661 60.9095 24.6885 61.6466 24.2334C62.0787 23.9667 62.5176 23.7101 62.9631 23.4639C63.7334 23.0382 64.179 22.1844 64.0368 21.3159L63.7639 19.6497C63.6172 18.7534 64.0907 17.8652 64.9351 17.5307C65.4808 17.3145 66.033 17.1112 66.5914 16.9212C67.4548 16.6273 68.3947 17.0012 68.8616 17.7846L69.7141 19.2149C70.1668 19.9745 71.0634 20.3401 71.93 20.1644C72.4751 20.0539 73.0253 19.9573 73.5802 19.8752C74.456 19.7456 75.1752 19.0951 75.3413 18.2255L75.6526 16.5958C75.8238 15.6993 76.5803 15.0267 77.4929 15.0078C77.7459 15.0026 77.9995 15 78.2538 15C78.5964 15 78.9379 15.0048 79.2782 15.0142C80.1871 15.0395 80.9371 15.7127 81.1055 16.6063L81.4171 18.2586C81.5803 19.1248 82.2925 19.7754 83.1634 19.911C83.6134 19.9811 84.0603 20.0607 84.5039 20.1495C85.3691 20.3228 86.263 19.957 86.7148 19.199L87.5726 17.7597C88.0388 16.9777 88.9763 16.6035 89.8388 16.8949C90.3938 17.0824 90.9427 17.283 91.4852 17.4963C92.3322 17.8293 92.8079 18.719 92.6609 19.6171L92.39 21.2714C92.2474 22.1421 92.6955 22.9976 93.4688 23.4222C93.9287 23.6748 94.3817 23.9384 94.8273 24.2127C95.5642 24.6663 96.5082 24.6434 97.1931 24.1146L98.5946 23.0324C99.3033 22.4852 100.293 22.4713 100.989 23.0343C101.452 23.408 101.905 23.793 102.348 24.1887C103.038 24.8052 103.168 25.8261 102.694 26.6211L101.888 27.9719C101.427 28.7452 101.544 29.7272 102.136 30.4059C102.48 30.8007 102.815 31.2042 103.139 31.6159C103.689 32.3128 104.614 32.6124 105.452 32.3206L107.004 31.7803C107.868 31.4796 108.831 31.8002 109.302 32.5839C109.602 33.0827 109.89 33.5892 110.167 34.1032C110.596 34.9017 110.387 35.884 109.7 36.4753L108.415 37.5821C107.749 38.1549 107.542 39.0925 107.855 39.9125C107.998 40.2864 108.135 40.6636 108.264 41.0441C108.547 41.8782 109.309 42.4679 110.19 42.4806L111.869 42.5049C112.778 42.518 113.57 43.1415 113.75 44.0326C113.866 44.6078 113.969 45.188 114.057 45.7727C114.194 46.6737 113.661 47.5325 112.809 47.8548L111.254 48.4426C110.428 48.7552 109.91 49.5736 109.932 50.4574C109.939 50.7242 109.942 50.9919 109.942 51.2603C109.942 51.363 109.942 51.4655 109.941 51.5679C109.932 52.4501 110.46 53.2591 111.289 53.5603L112.861 54.131C113.716 54.4415 114.259 55.2908 114.137 56.1922C114.056 56.7898 113.96 57.3827 113.85 57.9707C113.683 58.8653 112.899 59.5006 111.989 59.5257L110.318 59.5719C109.436 59.5962 108.681 60.1975 108.409 61.0368C108.251 61.5282 108.08 62.0143 107.898 62.4949C107.589 63.3116 107.797 64.243 108.457 64.8143L109.805 65.9805C110.461 66.5481 110.66 67.4889 110.253 68.2551V68.2551C109.848 69.0182 108.966 69.3785 108.13 69.1579C105.138 68.3679 101.09 67.2944 96.6903 66.1233C95.2382 65.7367 94.7012 63.9266 95.5292 62.6727C97.6901 59.4 98.9483 55.4773 98.9483 51.2603C98.9483 39.8169 89.6831 30.5401 78.2538 30.5401C66.8245 30.5401 57.5593 39.8169 57.5593 51.2603C57.5593 55.4799 58.819 59.4049 60.9825 62.6789C61.8112 63.9328 61.2742 65.7437 59.8218 66.1303C55.3573 67.3186 51.2569 68.406 48.2568 69.198ZM71.9751 64.0822C71.6044 64.106 71.2321 64.0315 70.9102 63.8461C66.4841 61.2965 63.5044 56.5178 63.5044 51.0431C63.5044 42.8888 70.1148 36.2784 78.2691 36.2784C86.4234 36.2784 93.0337 42.8888 93.0337 51.0431C93.0337 56.5178 90.0541 61.2965 85.628 63.846C85.3061 64.0315 84.9338 64.106 84.5631 64.0822C81.7725 63.9026 79.301 63.8536 78.2693 63.8536C77.2376 63.8536 74.7659 63.9026 71.9751 64.0822ZM78.269 57.9911C82.1063 57.9911 85.2171 54.8803 85.2171 51.043C85.2171 47.2057 82.1063 44.0949 78.269 44.0949C74.4316 44.0949 71.3209 47.2057 71.3209 51.043C71.3209 54.8803 74.4316 57.9911 78.269 57.9911Z" fill="#002147"/>
</mask>
<g mask="url(#mask0)">
<path d="M101.786 79.0529C93.9699 54.3872 58.4333 32.1533 41.6421 24.1196L35.3454 71.0192C60.7493 83.9745 109.603 103.719 101.786 79.0529Z" fill="url(#paint0_linear)"/>
<path d="M35.8705 -5.89944C39.1592 27.277 83.5388 68.2796 105.317 84.6339L129.822 29.7935C97.1347 4.07237 32.5818 -39.0758 35.8705 -5.89944Z" fill="url(#paint1_linear)"/>
<path d="M113.028 -6.01552C87.9534 -11.0126 41.5456 65.0877 43.9752 73.4656C46.4048 81.8436 112.321 28.6835 110.593 20.9177C108.864 13.1518 122.076 -4.2123 113.028 -6.01552Z" fill="url(#paint2_linear)"/>
<path d="M7.44587 55.5919C16.7766 81.0503 76.009 87.3448 78.9859 81.1022C81.9629 74.8597 31.4827 46.7594 21.8326 44.9495C12.1825 43.1395 4.07882 46.4051 7.44587 55.5919Z" fill="url(#paint3_linear)"/>
<path d="M116.669 83.6348C122.036 62.3481 84.1503 30.6767 79.2075 33.4539C74.2648 36.231 97.3006 86.1888 101.829 84.0495C106.357 81.9103 114.733 91.3161 116.669 83.6348Z" fill="url(#paint4_linear)"/>
<path d="M75.5887 16.4573C78.3131 33.1565 90.6994 48.2094 96.552 53.6484L98.7467 21.8963C89.8922 13.1253 72.8642 -0.241991 75.5887 16.4573Z" fill="url(#paint5_linear)"/>
</g>
<path fill-rule="evenodd" clip-rule="evenodd" d="M78.3368 65.8086C86.4911 65.8086 93.1015 59.1983 93.1015 51.044C93.1015 42.8897 86.4911 36.2793 78.3368 36.2793C70.1825 36.2793 63.5721 42.8897 63.5721 51.044C63.5721 59.1983 70.1825 65.8086 78.3368 65.8086ZM78.3368 57.9916C82.1741 57.9916 85.2849 54.8808 85.2849 51.0435C85.2849 47.2062 82.1741 44.0954 78.3368 44.0954C74.4995 44.0954 71.3887 47.2062 71.3887 51.0435C71.3887 54.8808 74.4995 57.9916 78.3368 57.9916Z" fill="#216093"/>
<path d="M52.2879 83.8366V77.2161H49.8705V75.6557H56.7602V77.2161H54.3427V83.8366H52.2879Z" fill="#216093"/>
<path d="M61.2745 84.0014C60.1097 84.0014 59.216 83.723 58.5933 83.1663C57.9743 82.6096 57.6648 81.8166 57.6648 80.7873C57.6648 79.78 57.9541 78.976 58.5329 78.3753C59.1116 77.7746 59.9211 77.4743 60.9613 77.4743C61.9063 77.4743 62.6169 77.7289 63.093 78.238C63.5692 78.7471 63.8073 79.476 63.8073 80.4247V81.117H59.5932C59.6115 81.4027 59.672 81.6426 59.7745 81.8367C59.8771 82.0272 60.0126 82.1792 60.1811 82.2927C60.3459 82.4063 60.5382 82.4887 60.758 82.54C60.9778 82.5876 61.2177 82.6114 61.4778 82.6114C61.7012 82.6114 61.921 82.5876 62.1371 82.54C62.3532 82.4887 62.551 82.4227 62.7304 82.3422C62.8879 82.2726 63.0326 82.1975 63.1645 82.1169C63.3 82.0363 63.4099 81.9649 63.4941 81.9026H63.6974V83.4905C63.5399 83.5527 63.3952 83.6113 63.2634 83.6663C63.1352 83.7176 62.9575 83.7707 62.7304 83.8256C62.5217 83.8805 62.3055 83.9227 62.0821 83.952C61.8623 83.9849 61.5931 84.0014 61.2745 84.0014ZM61.9118 79.9577C61.9008 79.5511 61.8056 79.2416 61.6261 79.0292C61.4503 78.8167 61.1792 78.7105 60.813 78.7105C60.4393 78.7105 60.1463 78.8222 59.9339 79.0456C59.7251 79.2691 59.6097 79.5731 59.5877 79.9577H61.9118Z" fill="#216093"/>
<path d="M68.4424 84.0014C67.9333 84.0014 67.4663 83.9373 67.0414 83.8091C66.6202 83.6809 66.2539 83.4831 65.9426 83.2157C65.6349 82.9484 65.395 82.6132 65.2228 82.2103C65.0507 81.8037 64.9646 81.3257 64.9646 80.7763C64.9646 80.1866 65.058 79.6848 65.2448 79.2709C65.4316 78.857 65.6843 78.5164 66.003 78.249C66.3107 77.9926 66.6715 77.8039 67.0854 77.6831C67.5029 77.5585 67.937 77.4963 68.3875 77.4963C68.7281 77.4963 69.0688 77.5366 69.4094 77.6171C69.7501 77.6941 70.0925 77.8186 70.4368 77.9908V79.639H70.1896C70.1127 79.5658 70.0174 79.4852 69.9039 79.3973C69.794 79.3094 69.6731 79.2288 69.5413 79.1555C69.4021 79.0786 69.2446 79.0145 69.0688 78.9632C68.893 78.9083 68.697 78.8808 68.4809 78.8808C67.9901 78.8808 67.6091 79.053 67.3381 79.3973C67.0707 79.7379 66.937 80.1976 66.937 80.7763C66.937 81.3953 67.0799 81.8568 67.3656 82.1609C67.6549 82.4649 68.0377 82.6169 68.5139 82.6169C68.7556 82.6169 68.9681 82.5894 69.1512 82.5345C69.3343 82.4795 69.4918 82.4136 69.6237 82.3367C69.7519 82.2598 69.8618 82.181 69.9533 82.1004C70.0449 82.0162 70.1237 81.9411 70.1896 81.8752H70.4368V83.5234C70.327 83.571 70.1988 83.626 70.0522 83.6882C69.9094 83.7505 69.7629 83.8018 69.6127 83.8421C69.4259 83.8934 69.2501 83.9318 69.0853 83.9575C68.9241 83.9868 68.7098 84.0014 68.4424 84.0014Z" fill="#216093"/>
<path d="M77.7477 83.8366H75.8137V80.7763C75.8137 80.5272 75.8027 80.28 75.7807 80.0346C75.7624 79.7855 75.7258 79.6024 75.6708 79.4852C75.6049 79.346 75.5097 79.2471 75.3851 79.1885C75.2606 79.1262 75.0939 79.0951 74.8852 79.0951C74.7277 79.0951 74.5683 79.1244 74.4072 79.183C74.246 79.2416 74.0739 79.335 73.8907 79.4632V83.8366H71.9677V75.2876H73.8907V78.3479C74.2057 78.0805 74.5116 77.8717 74.8083 77.7215C75.1086 77.5714 75.4401 77.4963 75.8027 77.4963C76.4327 77.4963 76.9144 77.6959 77.2477 78.0951C77.581 78.4907 77.7477 79.0658 77.7477 79.8203V83.8366Z" fill="#216093"/>
<path d="M85.5749 83.8366H83.641V80.7763C83.641 80.5272 83.63 80.28 83.608 80.0346C83.5897 79.7855 83.5531 79.6024 83.4981 79.4852C83.4322 79.346 83.337 79.2471 83.2124 79.1885C83.0879 79.1262 82.9212 79.0951 82.7124 79.0951C82.5549 79.0951 82.3956 79.1244 82.2345 79.183C82.0733 79.2416 81.9011 79.335 81.718 79.4632V83.8366H79.795V77.6666H81.718V78.3479C82.033 78.0805 82.3388 77.8717 82.6355 77.7215C82.9359 77.5714 83.2674 77.4963 83.63 77.4963C84.26 77.4963 84.7416 77.6959 85.075 78.0951C85.4083 78.4907 85.5749 79.0658 85.5749 79.8203V83.8366Z" fill="#216093"/>
<path d="M89.5453 83.8366H87.6223V77.6666H89.5453V83.8366ZM89.6002 76.7875H87.5674V75.2876H89.6002V76.7875Z" fill="#216093"/>
<path d="M97.5594 80.7543C97.5594 81.7689 97.281 82.5693 96.7242 83.1553C96.1711 83.7377 95.3873 84.0289 94.3727 84.0289C93.3654 84.0289 92.5816 83.7377 92.0212 83.1553C91.4644 82.5693 91.1861 81.7689 91.1861 80.7543C91.1861 79.7288 91.4644 78.9266 92.0212 78.3479C92.5816 77.7655 93.3654 77.4743 94.3727 77.4743C95.3836 77.4743 96.1675 77.7673 96.7242 78.3534C97.281 78.9358 97.5594 79.7361 97.5594 80.7543ZM95.5869 80.7653C95.5869 80.399 95.5558 80.095 95.4935 79.8533C95.4349 79.6079 95.3525 79.4119 95.2463 79.2654C95.1327 79.1116 95.0045 79.0053 94.8617 78.9467C94.7188 78.8845 94.5558 78.8533 94.3727 78.8533C94.2006 78.8533 94.0449 78.8808 93.9057 78.9358C93.7665 78.987 93.6383 79.0878 93.5211 79.2379C93.4112 79.3808 93.3233 79.5767 93.2574 79.8258C93.1915 80.0749 93.1585 80.3881 93.1585 80.7653C93.1585 81.1426 93.1896 81.4484 93.2519 81.6829C93.3142 81.9136 93.3947 82.0986 93.4936 82.2378C93.5962 82.3806 93.7244 82.485 93.8782 82.5509C94.0321 82.6169 94.2024 82.6498 94.3892 82.6498C94.543 82.6498 94.6987 82.6169 94.8562 82.5509C95.0174 82.485 95.1456 82.3861 95.2408 82.2543C95.3543 82.0968 95.4404 81.9081 95.499 81.6884C95.5576 81.4649 95.5869 81.1572 95.5869 80.7653Z" fill="#216093"/>
<path d="M104.98 83.8366H103.046V80.7763C103.046 80.5272 103.035 80.28 103.013 80.0346C102.995 79.7855 102.958 79.6024 102.903 79.4852C102.837 79.346 102.742 79.2471 102.618 79.1885C102.493 79.1262 102.326 79.0951 102.118 79.0951C101.96 79.0951 101.801 79.1244 101.64 79.183C101.478 79.2416 101.306 79.335 101.123 79.4632V83.8366H99.2001V77.6666H101.123V78.3479C101.438 78.0805 101.744 77.8717 102.041 77.7215C102.341 77.5714 102.672 77.4963 103.035 77.4963C103.665 77.4963 104.147 77.6959 104.48 78.0951C104.813 78.4907 104.98 79.0658 104.98 79.8203V83.8366Z" fill="#216093"/>
<path d="M11.0053 97.8956C9.77824 97.8956 8.80393 97.5257 8.08236 96.7858C7.36079 96.0423 7 94.9984 7 93.6541C7 92.3575 7.36079 91.3246 8.08236 90.5554C8.8076 89.7825 9.78373 89.3961 11.0108 89.3961C11.3368 89.3961 11.6298 89.4144 11.8898 89.451C12.1499 89.4877 12.399 89.5389 12.6371 89.6049C12.8239 89.6598 13.0272 89.7349 13.2469 89.8301C13.4667 89.9254 13.6443 90.0078 13.7799 90.0774V92.0278H13.5711C13.4722 91.9399 13.3476 91.8355 13.1975 91.7146C13.0473 91.5901 12.877 91.4692 12.6865 91.352C12.496 91.2348 12.2854 91.1359 12.0547 91.0553C11.8276 90.9711 11.5895 90.929 11.3404 90.929C11.0437 90.929 10.7709 90.9766 10.5218 91.0718C10.2764 91.1634 10.042 91.3246 9.81853 91.5553C9.61341 91.7641 9.44492 92.0461 9.31306 92.4014C9.18487 92.7567 9.12077 93.1761 9.12077 93.6596C9.12077 94.1687 9.18853 94.5973 9.32405 94.9452C9.45958 95.2896 9.63722 95.5679 9.85699 95.7804C10.0694 95.9855 10.3057 96.1338 10.5657 96.2254C10.8295 96.317 11.0914 96.3628 11.3514 96.3628C11.6225 96.3628 11.8807 96.3188 12.1261 96.2309C12.3715 96.1393 12.5785 96.0386 12.7469 95.9287C12.9301 95.8152 13.0913 95.6998 13.2304 95.5826C13.3696 95.4654 13.4905 95.361 13.5931 95.2694H13.7799V97.1924C13.6297 97.262 13.4557 97.3426 13.2579 97.4341C13.0601 97.522 12.8568 97.5971 12.6481 97.6594C12.3917 97.7363 12.1517 97.7949 11.9283 97.8352C11.7049 97.8755 11.3972 97.8956 11.0053 97.8956Z" fill="#216093"/>
<path d="M21.4258 94.6541C21.4258 95.6687 21.1475 96.469 20.5907 97.055C20.0376 97.6374 19.2538 97.9286 18.2392 97.9286C17.2319 97.9286 16.4481 97.6374 15.8877 97.055C15.3309 96.469 15.0525 95.6687 15.0525 94.6541C15.0525 93.6285 15.3309 92.8263 15.8877 92.2476C16.4481 91.6652 17.2319 91.374 18.2392 91.374C19.2501 91.374 20.034 91.667 20.5907 92.2531C21.1475 92.8355 21.4258 93.6358 21.4258 94.6541ZM19.4534 94.665C19.4534 94.2988 19.4223 93.9947 19.36 93.753C19.3014 93.5076 19.219 93.3116 19.1128 93.1651C18.9992 93.0113 18.871 92.9051 18.7282 92.8465C18.5853 92.7842 18.4223 92.7531 18.2392 92.7531C18.067 92.7531 17.9114 92.7805 17.7722 92.8355C17.633 92.8867 17.5048 92.9875 17.3876 93.1377C17.2777 93.2805 17.1898 93.4765 17.1239 93.7255C17.0579 93.9746 17.025 94.2878 17.025 94.665C17.025 95.0423 17.0561 95.3482 17.1184 95.5826C17.1806 95.8133 17.2612 95.9983 17.3601 96.1375C17.4627 96.2803 17.5909 96.3847 17.7447 96.4507C17.8985 96.5166 18.0689 96.5496 18.2557 96.5496C18.4095 96.5496 18.5652 96.5166 18.7227 96.4507C18.8838 96.3847 19.012 96.2858 19.1073 96.154C19.2208 95.9965 19.3069 95.8078 19.3655 95.5881C19.4241 95.3646 19.4534 95.057 19.4534 94.665Z" fill="#216093"/>
<path d="M30.4399 97.7363V94.6541C30.4399 94.35 30.4344 94.0936 30.4234 93.8849C30.4124 93.6761 30.3794 93.5058 30.3245 93.3739C30.2695 93.242 30.1835 93.1468 30.0662 93.0882C29.9527 93.0259 29.7915 92.9948 29.5828 92.9948C29.4362 92.9948 29.2916 93.0278 29.1487 93.0937C29.0059 93.156 28.8502 93.2457 28.6817 93.3629V97.7363H26.7477V94.6541C26.7477 94.3537 26.7404 94.0991 26.7258 93.8904C26.7148 93.6779 26.6818 93.5058 26.6269 93.3739C26.5719 93.242 26.4858 93.1468 26.3686 93.0882C26.2551 93.0259 26.0958 92.9948 25.8906 92.9948C25.7331 92.9948 25.5793 93.0314 25.4291 93.1047C25.279 93.1779 25.1324 93.264 24.9896 93.3629V97.7363H23.0666V91.5663H24.9896V92.2476C25.3046 91.9802 25.6013 91.7714 25.8797 91.6212C26.158 91.4711 26.4712 91.396 26.8192 91.396C27.1964 91.396 27.5279 91.4857 27.8136 91.6652C28.0993 91.8447 28.3173 92.1121 28.4674 92.4674C28.8374 92.1231 29.1853 91.8593 29.5113 91.6762C29.841 91.4894 30.1743 91.396 30.5113 91.396C30.797 91.396 31.0534 91.4418 31.2805 91.5333C31.5076 91.6249 31.6999 91.7623 31.8574 91.9454C32.0295 92.1432 32.1577 92.3794 32.242 92.6542C32.3299 92.9252 32.3738 93.2805 32.3738 93.72V97.7363H30.4399Z" fill="#216093"/>
<path d="M40.4703 94.5661C40.4703 95.5514 40.2194 96.3463 39.7176 96.9506C39.2195 97.555 38.6041 97.8572 37.8715 97.8572C37.5639 97.8572 37.2965 97.8224 37.0694 97.7528C36.8423 97.6832 36.6005 97.5751 36.3442 97.4286V99.9999H34.4212V91.5663H36.3442V92.2091C36.6262 91.9674 36.9137 91.7714 37.2067 91.6212C37.4998 91.4711 37.8386 91.396 38.2232 91.396C38.9374 91.396 39.4905 91.6799 39.8824 92.2476C40.2743 92.8153 40.4703 93.5882 40.4703 94.5661ZM38.5034 94.6046C38.5034 94.0039 38.41 93.568 38.2232 93.297C38.04 93.0259 37.7525 92.8904 37.3606 92.8904C37.1884 92.8904 37.0163 92.9179 36.8441 92.9728C36.6756 93.0278 36.509 93.1102 36.3442 93.2201V96.3243C36.4467 96.3682 36.5584 96.3994 36.6793 96.4177C36.8038 96.436 36.9503 96.4452 37.1188 96.4452C37.5877 96.4452 37.9356 96.2932 38.1627 95.9891C38.3898 95.6815 38.5034 95.22 38.5034 94.6046Z" fill="#216093"/>
<path d="M47.858 97.7363H45.9351V97.055C45.6018 97.3334 45.2959 97.5458 45.0175 97.6924C44.7392 97.8352 44.4077 97.9066 44.0231 97.9066C43.4114 97.9066 42.9334 97.7143 42.5891 97.3297C42.2485 96.9415 42.0781 96.3591 42.0781 95.5826V91.5663H44.0121V94.6266C44.0121 94.9452 44.0194 95.2053 44.0341 95.4068C44.0524 95.6082 44.0927 95.7785 44.1549 95.9177C44.2135 96.0459 44.3033 96.143 44.4242 96.2089C44.5487 96.2748 44.7208 96.3078 44.9406 96.3078C45.0761 96.3078 45.2355 96.2748 45.4186 96.2089C45.6054 96.143 45.7776 96.0532 45.9351 95.9397V91.5663H47.858V97.7363Z" fill="#216093"/>
<path d="M52.3174 97.8572C51.5335 97.8572 50.9621 97.696 50.6032 97.3737C50.2479 97.0514 50.0702 96.5239 50.0702 95.7914V92.9069H49.334V91.5663H50.0702V89.8027H51.9932V91.5663H53.8448V92.9069H51.9932V95.0936C51.9932 95.3097 51.995 95.4983 51.9987 95.6595C52.0024 95.8207 52.0317 95.9653 52.0866 96.0935C52.1379 96.2217 52.2276 96.3243 52.3558 96.4012C52.4877 96.4745 52.6782 96.5111 52.9272 96.5111C53.0298 96.5111 53.1635 96.4891 53.3283 96.4452C53.4968 96.4012 53.614 96.3609 53.6799 96.3243H53.8448V97.6814C53.636 97.7363 53.4144 97.7784 53.18 97.8077C52.9455 97.8407 52.658 97.8572 52.3174 97.8572Z" fill="#216093"/>
<path d="M58.6557 96.1265V94.8409C58.3297 94.8738 58.066 94.9031 57.8645 94.9288C57.6631 94.9507 57.4653 94.9965 57.2712 95.0661C57.1027 95.1247 56.9708 95.2145 56.8756 95.3353C56.784 95.4525 56.7382 95.61 56.7382 95.8078C56.7382 96.0972 56.8151 96.2968 56.969 96.4067C57.1265 96.5129 57.3572 96.566 57.6613 96.566C57.8297 96.566 58.0019 96.5276 58.1777 96.4507C58.3535 96.3737 58.5129 96.2657 58.6557 96.1265ZM58.6557 97.0825C58.5238 97.1924 58.4048 97.2913 58.2986 97.3792C58.196 97.4671 58.0568 97.555 57.881 97.6429C57.7089 97.7271 57.5404 97.7912 57.3756 97.8352C57.2144 97.8792 56.9873 97.9011 56.6943 97.9011C56.1485 97.9011 55.6943 97.718 55.3317 97.3517C54.9728 96.9854 54.7933 96.5239 54.7933 95.9672C54.7933 95.5093 54.8848 95.1394 55.068 94.8573C55.2511 94.5753 55.5149 94.3519 55.8592 94.187C56.2071 94.0186 56.6229 93.9013 57.1063 93.8354C57.5898 93.7695 58.11 93.7182 58.6667 93.6816V93.6486C58.6667 93.308 58.5403 93.0736 58.2876 92.9454C58.0385 92.8135 57.6631 92.7476 57.1613 92.7476C56.9342 92.7476 56.6686 92.7897 56.3646 92.8739C56.0606 92.9545 55.7639 93.0589 55.4746 93.1871H55.3097V91.6982C55.5002 91.6432 55.8079 91.5791 56.2328 91.5059C56.6576 91.4289 57.0862 91.3905 57.5184 91.3905C58.5806 91.3905 59.3535 91.5681 59.837 91.9234C60.3241 92.2751 60.5677 92.8135 60.5677 93.5387V97.7363H58.6557V97.0825Z" fill="#216093"/>
<path d="M64.9721 97.8572C64.1882 97.8572 63.6168 97.696 63.2579 97.3737C62.9026 97.0514 62.7249 96.5239 62.7249 95.7914V92.9069H61.9887V91.5663H62.7249V89.8027H64.6479V91.5663H66.4995V92.9069H64.6479V95.0936C64.6479 95.3097 64.6497 95.4983 64.6534 95.6595C64.6571 95.8207 64.6864 95.9653 64.7413 96.0935C64.7926 96.2217 64.8823 96.3243 65.0105 96.4012C65.1424 96.4745 65.3329 96.5111 65.5819 96.5111C65.6845 96.5111 65.8182 96.4891 65.983 96.4452C66.1515 96.4012 66.2687 96.3609 66.3346 96.3243H66.4995V97.6814C66.2907 97.7363 66.0691 97.7784 65.8347 97.8077C65.6002 97.8407 65.3127 97.8572 64.9721 97.8572Z" fill="#216093"/>
<path d="M69.8325 97.7363H67.9095V91.5663H69.8325V97.7363ZM69.8874 90.6872H67.8546V89.1873H69.8874V90.6872Z" fill="#216093"/>
<path d="M77.8466 94.6541C77.8466 95.6687 77.5682 96.469 77.0114 97.055C76.4584 97.6374 75.6745 97.9286 74.6599 97.9286C73.6526 97.9286 72.8688 97.6374 72.3084 97.055C71.7516 96.469 71.4733 95.6687 71.4733 94.6541C71.4733 93.6285 71.7516 92.8263 72.3084 92.2476C72.8688 91.6652 73.6526 91.374 74.6599 91.374C75.6708 91.374 76.4547 91.667 77.0114 92.2531C77.5682 92.8355 77.8466 93.6358 77.8466 94.6541ZM75.8741 94.665C75.8741 94.2988 75.843 93.9947 75.7807 93.753C75.7221 93.5076 75.6397 93.3116 75.5335 93.1651C75.4199 93.0113 75.2917 92.9051 75.1489 92.8465C75.006 92.7842 74.8431 92.7531 74.6599 92.7531C74.4878 92.7531 74.3321 92.7805 74.1929 92.8355C74.0537 92.8867 73.9255 92.9875 73.8083 93.1377C73.6984 93.2805 73.6105 93.4765 73.5446 93.7255C73.4787 93.9746 73.4457 94.2878 73.4457 94.665C73.4457 95.0423 73.4768 95.3482 73.5391 95.5826C73.6014 95.8133 73.6819 95.9983 73.7808 96.1375C73.8834 96.2803 74.0116 96.3847 74.1654 96.4507C74.3193 96.5166 74.4896 96.5496 74.6764 96.5496C74.8302 96.5496 74.9859 96.5166 75.1434 96.4507C75.3046 96.3847 75.4328 96.2858 75.528 96.154C75.6415 95.9965 75.7276 95.8078 75.7862 95.5881C75.8448 95.3646 75.8741 95.057 75.8741 94.665Z" fill="#216093"/>
<path d="M85.2673 97.7363H83.3333V94.676C83.3333 94.427 83.3223 94.1797 83.3003 93.9343C83.282 93.6852 83.2454 93.5021 83.1904 93.3849C83.1245 93.2457 83.0293 93.1468 82.9047 93.0882C82.7802 93.0259 82.6136 92.9948 82.4048 92.9948C82.2473 92.9948 82.0879 93.0241 81.9268 93.0827C81.7656 93.1413 81.5935 93.2347 81.4103 93.3629V97.7363H79.4873V91.5663H81.4103V92.2476C81.7253 91.9802 82.0312 91.7714 82.3279 91.6212C82.6282 91.4711 82.9597 91.396 83.3223 91.396C83.9523 91.396 84.434 91.5956 84.7673 91.9949C85.1006 92.3904 85.2673 92.9655 85.2673 93.72V97.7363Z" fill="#216093"/>
<path d="M90.7155 96.1265V94.8409C90.3896 94.8738 90.1258 94.9031 89.9244 94.9288C89.7229 94.9507 89.5251 94.9965 89.331 95.0661C89.1625 95.1247 89.0307 95.2145 88.9354 95.3353C88.8438 95.4525 88.7981 95.61 88.7981 95.8078C88.7981 96.0972 88.875 96.2968 89.0288 96.4067C89.1863 96.5129 89.4171 96.566 89.7211 96.566C89.8896 96.566 90.0617 96.5276 90.2375 96.4507C90.4134 96.3737 90.5727 96.2657 90.7155 96.1265ZM90.7155 97.0825C90.5837 97.1924 90.4646 97.2913 90.3584 97.3792C90.2559 97.4671 90.1167 97.555 89.9409 97.6429C89.7687 97.7271 89.6002 97.7912 89.4354 97.8352C89.2742 97.8792 89.0471 97.9011 88.7541 97.9011C88.2083 97.9011 87.7542 97.718 87.3915 97.3517C87.0326 96.9854 86.8531 96.5239 86.8531 95.9672C86.8531 95.5093 86.9447 95.1394 87.1278 94.8573C87.311 94.5753 87.5747 94.3519 87.919 94.187C88.267 94.0186 88.6827 93.9013 89.1662 93.8354C89.6497 93.7695 90.1698 93.7182 90.7265 93.6816V93.6486C90.7265 93.308 90.6002 93.0736 90.3474 92.9454C90.0984 92.8135 89.7229 92.7476 89.2211 92.7476C88.994 92.7476 88.7285 92.7897 88.4245 92.8739C88.1204 92.9545 87.8238 93.0589 87.5344 93.1871H87.3696V91.6982C87.56 91.6432 87.8677 91.5791 88.2926 91.5059C88.7175 91.4289 89.146 91.3905 89.5782 91.3905C90.6405 91.3905 91.4133 91.5681 91.8968 91.9234C92.384 92.2751 92.6275 92.8135 92.6275 93.5387V97.7363H90.7155V97.0825Z" fill="#216093"/>
<path d="M96.5924 97.7363H94.6694V89.1873H96.5924V97.7363Z" fill="#216093"/>
<path d="M111.066 97.7363H109.022V92.3135L107.533 95.8133H106.132L104.643 92.3135V97.7363H102.709V89.5554H105.077L106.89 93.5937L108.698 89.5554H111.066V97.7363Z" fill="#216093"/>
<path d="M120.948 97.7363H118.442L116.162 94.7365H115.426V97.7363H113.382V89.5554H116.673C117.127 89.5554 117.523 89.5847 117.86 89.6433C118.197 89.6983 118.508 89.8155 118.794 89.995C119.087 90.1818 119.32 90.4198 119.492 90.7092C119.664 90.9949 119.75 91.3594 119.75 91.8026C119.75 92.4289 119.609 92.938 119.327 93.3299C119.045 93.7182 118.668 94.0277 118.195 94.2585L120.948 97.7363ZM117.64 92.0608C117.64 91.8557 117.6 91.6799 117.519 91.5333C117.442 91.3832 117.312 91.2678 117.129 91.1872C117.001 91.1323 116.858 91.0975 116.701 91.0828C116.543 91.0682 116.347 91.0608 116.113 91.0608H115.426V93.264H116.014C116.3 93.264 116.541 93.2475 116.739 93.2146C116.941 93.1779 117.111 93.1029 117.25 92.9893C117.382 92.8867 117.479 92.764 117.541 92.6212C117.607 92.4783 117.64 92.2915 117.64 92.0608Z" fill="#216093"/>
<path d="M126.253 97.7363H121.847V96.3078H123.023V90.9839H121.847V89.5554H126.253V90.9839H125.077V96.3078H126.253V97.7363Z" fill="#216093"/>
<path d="M137.611 97.7363H132.15V89.5554H134.205V96.176H137.611V97.7363Z" fill="#216093"/>
<path d="M142.499 96.1265V94.8409C142.173 94.8738 141.909 94.9031 141.708 94.9288C141.507 94.9507 141.309 94.9965 141.115 95.0661C140.946 95.1247 140.814 95.2145 140.719 95.3353C140.627 95.4525 140.582 95.61 140.582 95.8078C140.582 96.0972 140.659 96.2968 140.812 96.4067C140.97 96.5129 141.201 96.566 141.505 96.566C141.673 96.566 141.845 96.5276 142.021 96.4507C142.197 96.3737 142.356 96.2657 142.499 96.1265ZM142.499 97.0825C142.367 97.1924 142.248 97.2913 142.142 97.3792C142.039 97.4671 141.9 97.555 141.724 97.6429C141.552 97.7271 141.384 97.7912 141.219 97.8352C141.058 97.8792 140.831 97.9011 140.538 97.9011C139.992 97.9011 139.538 97.718 139.175 97.3517C138.816 96.9854 138.637 96.5239 138.637 95.9672C138.637 95.5093 138.728 95.1394 138.911 94.8573C139.095 94.5753 139.358 94.3519 139.703 94.187C140.051 94.0186 140.466 93.9013 140.95 93.8354C141.433 93.7695 141.953 93.7182 142.51 93.6816V93.6486C142.51 93.308 142.384 93.0736 142.131 92.9454C141.882 92.8135 141.507 92.7476 141.005 92.7476C140.778 92.7476 140.512 92.7897 140.208 92.8739C139.904 92.9545 139.607 93.0589 139.318 93.1871H139.153V91.6982C139.344 91.6432 139.651 91.5791 140.076 91.5059C140.501 91.4289 140.93 91.3905 141.362 91.3905C142.424 91.3905 143.197 91.5681 143.68 91.9234C144.168 92.2751 144.411 92.8135 144.411 93.5387V97.7363H142.499V97.0825Z" fill="#216093"/>
<path d="M150.535 94.6046C150.535 93.9893 150.442 93.5497 150.255 93.286C150.068 93.0223 149.781 92.8904 149.392 92.8904C149.22 92.8904 149.048 92.9179 148.876 92.9728C148.707 93.0278 148.541 93.1102 148.376 93.2201V96.3188C148.504 96.3701 148.632 96.4049 148.761 96.4232C148.892 96.4415 149.022 96.4507 149.151 96.4507C149.616 96.4507 149.962 96.2968 150.189 95.9891C150.42 95.6815 150.535 95.22 150.535 94.6046ZM152.502 94.5661C152.502 95.5478 152.253 96.3426 151.755 96.9506C151.257 97.555 150.64 97.8572 149.903 97.8572C149.596 97.8572 149.328 97.8224 149.101 97.7528C148.874 97.6832 148.632 97.5751 148.376 97.4286L148.294 97.7363H146.453V89.1873H148.376V92.2091C148.658 91.9674 148.946 91.7714 149.239 91.6212C149.532 91.4711 149.87 91.396 150.255 91.396C150.973 91.396 151.526 91.6762 151.914 92.2366C152.306 92.797 152.502 93.5735 152.502 94.5661Z" fill="#216093"/>
<defs>
<linearGradient id="paint0_linear" x1="68.9844" y1="24.1196" x2="68.9844" y2="90.827" gradientUnits="userSpaceOnUse">
<stop stop-color="#5686DA"/>
<stop offset="1" stop-color="#8EFFB7"/>
</linearGradient>
<linearGradient id="paint1_linear" x1="65.5715" y1="73.984" x2="87.4068" y2="-7.5064" gradientUnits="userSpaceOnUse">
<stop stop-color="#5686DA"/>
<stop offset="1" stop-color="#8EFFB7"/>
</linearGradient>
<linearGradient id="paint2_linear" x1="57.7623" y1="27.4433" x2="104.175" y2="42.0742" gradientUnits="userSpaceOnUse">
<stop stop-color="#5686DA"/>
<stop offset="1" stop-color="#8EFFB7"/>
</linearGradient>
<linearGradient id="paint3_linear" x1="49.8876" y1="90.4285" x2="34.6033" y2="38.4919" gradientUnits="userSpaceOnUse">
<stop stop-color="#5686DA"/>
<stop offset="1" stop-color="#8EFFB7"/>
</linearGradient>
<linearGradient id="paint4_linear" x1="103.581" y1="40.7435" x2="90.6321" y2="80.6321" gradientUnits="userSpaceOnUse">
<stop stop-color="#5686DA"/>
<stop offset="1" stop-color="#8EFFB7"/>
</linearGradient>
<linearGradient id="paint5_linear" x1="87.0218" y1="53.6484" x2="87.0218" y2="8.4859" gradientUnits="userSpaceOnUse">
<stop stop-color="#5686DA"/>
<stop offset="1" stop-color="#8EFFB7"/>
</linearGradient>
</defs>
</svg>
